<?xml version="1.0" encoding="UTF-8"?>
<svg id="Layer_1" xmlns="http://www.w3.org/2000/svg" width="328.17" height="328.17" viewBox="0 0 328.17 328.17">
  <defs>
    <style>
      .cls-1 {
        fill: #f9f9f9;
      }
    </style>
  </defs>
  <g id="_x32_069a460dcf28295e231f3111e03585e">
    <path class="cls-1" d="M277.73,85.78c0,10.42-7.6,18.59-19.72,18.59s-19.15-8.17-19.15-18.59,7.89-18.87,19.44-18.87,19.15,8.17,19.44,18.87Z"/>
    <rect class="cls-1" x="240.83" y="124.09" width="34.93" height="137.17"/>
    <path class="cls-1" d="M155.5,71.42h-44.22l-60.84,189.84h35.78l16.33-53.8h60.28l17.19,53.8h37.17l-61.69-189.84ZM108.18,181.27l14.65-46.76c3.39-11.26,6.2-24.51,9.01-35.49h.56c2.82,10.99,5.92,23.94,9.58,35.49l14.93,46.76h-48.73Z"/>
  </g>
</svg>